<?xml version="1.0" encoding="UTF-8" standalone="no"?>
<!-- Created with Inkscape (http://www.inkscape.org/) -->
<svg
   xmlns:dc="http://purl.org/dc/elements/1.1/"
   xmlns:cc="http://web.resource.org/cc/"
   xmlns:rdf="http://www.w3.org/1999/02/22-rdf-syntax-ns#"
   xmlns:svg="http://www.w3.org/2000/svg"
   xmlns="http://www.w3.org/2000/svg"
   xmlns:sodipodi="http://sodipodi.sourceforge.net/DTD/sodipodi-0.dtd"
   xmlns:inkscape="http://www.inkscape.org/namespaces/inkscape"
   id="svg2273"
   sodipodi:version="0.32"
   inkscape:version="0.45.1"
   width="133"
   height="103"
   version="1.0"
   sodipodi:docbase="/home/alvaro/django/bigua/media"
   sodipodi:docname="bigua.svg"
   inkscape:output_extension="org.inkscape.output.svg.inkscape">
  <metadata
     id="metadata2278">
    <rdf:RDF>
      <cc:Work
         rdf:about="">
        <dc:format>image/svg+xml</dc:format>
        <dc:type
           rdf:resource="http://purl.org/dc/dcmitype/StillImage" />
      </cc:Work>
    </rdf:RDF>
  </metadata>
  <defs
     id="defs2276" />
  <sodipodi:namedview
     inkscape:window-height="782"
     inkscape:window-width="1280"
     inkscape:pageshadow="2"
     inkscape:pageopacity="0.0"
     guidetolerance="10.0"
     gridtolerance="10.0"
     objecttolerance="10.0"
     borderopacity="1.0"
     bordercolor="#666666"
     pagecolor="#ffffff"
     id="base"
     inkscape:zoom="3.6796117"
     inkscape:cx="66.5"
     inkscape:cy="51.5"
     inkscape:window-x="0"
     inkscape:window-y="0"
     inkscape:current-layer="svg2273" />
  <g
     id="g2282"
     transform="translate(0.3072541,1.5894436)"
     inkscape:export-filename="/home/alvaro/django/bigua/logo.png"
     inkscape:export-xdpi="207.47079"
     inkscape:export-ydpi="207.47079">
    <path
       style="fill:#e3a1a1"
       d="M 58.314973,98.792889 C 57.764365,98.0818 52.921082,89.2875 47.552121,79.25 C 42.18316,69.2125 37.465981,61 37.069501,61 C 36.673021,61 35.257687,62.16712 33.924314,63.5936 C 26.94372,71.061637 14.955115,77.964226 11.360661,76.584904 C 10.084926,76.095359 10.359849,75.354184 12.883203,72.480243 C 14.576871,70.551262 16.601877,67.736779 17.383215,66.225837 C 19.391205,62.342813 26.006105,42.319959 25.969724,40.235056 C 25.953072,39.280775 24.448071,35.900441 22.625277,32.723203 C 20.110601,28.339973 17.573093,25.72191 12.106466,21.870465 C 4.5758279,16.564846 3.5226015,14.283208 8.8491189,14.81397 C 12.725738,15.200256 12.863204,13.918131 9.5260862,8.5 C 8.1710693,6.3 7.0585956,3.825 7.0539224,3 C 7.0492492,2.175 8.6102049,4.4041082 10.522713,7.9535738 C 12.435221,11.503039 14,14.765539 14,15.203574 C 14,15.641608 12.3699,16 10.377555,16 C 5.859018,16 6.5291019,16.963896 15.215375,22.959058 C 20.355576,26.506764 22.073012,28.444342 24.646707,33.599298 L 27.793413,39.901964 L 23.42028,52.676864 C 20.87283,60.118531 17.584077,67.549219 15.542599,70.475882 C 13.615099,73.239147 12.482724,75.651078 13.026211,75.835728 C 15.023665,76.514366 22.978345,71.758066 30.314043,65.498904 L 37.850213,59.068692 L 40.285279,63.284346 C 41.624566,65.602956 45.565304,72.9 49.042475,79.5 C 58.507686,97.465867 59.908042,99.529041 61.513399,97.873671 C 62.794455,96.552705 99.929003,27.331768 101.27809,23.75 C 101.79153,22.386819 102.99411,22.033199 106.71862,22.150194 L 111.5,22.300387 L 107.21885,22.900194 L 102.93769,23.5 L 82.718845,61.49425 C 70.639959,84.192294 61.859088,99.608729 60.908039,99.787138 C 60.032461,99.95139 58.865581,99.503977 58.314973,98.792889 z M 118.5,21 C 122.35,20.644245 124.09819,20.27371 122.38486,20.176587 C 120.67153,20.079464 118.05777,19.046685 116.57651,17.881522 C 114.43709,16.198658 113.0728,15.892649 109.94165,16.39334 C 107.77374,16.740002 106,16.666091 106,16.229093 C 106,15.792095 107.60346,12.41486 109.56325,8.7241259 C 111.52304,5.0333922 112.84648,1.5606182 112.50423,1.0068504 C 112.16199,0.4530827 112.35852,0 112.94098,0 C 114.81323,0 114.0441,3.3681526 111,8.5 C 109.36876,11.25 108.02643,13.8375 108.01705,14.25 C 108.00767,14.6625 109.5199,15 111.37756,15 C 113.23521,15 115.29606,15.651808 115.95723,16.448463 C 116.61839,17.245117 119.25694,18.032617 121.82068,18.198463 C 125.31853,18.424735 126.56496,18.936805 126.81433,20.25 C 127.11011,21.807581 126.28645,21.980584 119.32332,21.823413 L 111.5,21.646826 L 118.5,21 z "
       id="path2296" />
    <path
       style="fill:#e36767"
       d="M 57.772917,95.373671 C 56.448345,93.243152 52.519646,86.1 49.042475,79.5 C 45.565304,72.9 41.566824,65.504427 40.156964,63.065393 C 38.747104,60.626359 38.095025,58.940694 38.707898,59.319471 C 39.320771,59.698248 44.249715,68.324747 49.661107,78.48947 C 55.072498,88.654193 59.95,96.96883 60.5,96.96644 C 61.05,96.964051 70.432274,80.095624 81.349498,59.481048 C 99.326856,25.53509 103.26575,18.47284 101.27809,23.75 C 99.929003,27.331768 62.794455,96.552705 61.513399,97.873671 C 60.391619,99.030398 59.800884,98.635573 57.772917,95.373671 z M 24.661656,34.119682 C 20.974767,27.345653 21.323749,26.28801 25.082844,32.843206 C 26.768086,35.78197 27.961609,38.371724 27.735116,38.598217 C 27.508624,38.824709 26.125567,36.809369 24.661656,34.119682 z M 105.00879,16.126867 C 105.00215,15.089019 109.22536,6.2910667 111.75,2.0833333 C 111.8875,1.8541667 112.18677,1.8541667 112.41503,2.0833333 C 112.6433,2.3125 111.07226,5.875 108.92382,10 C 106.77539,14.125 105.01362,16.88209 105.00879,16.126867 z M 10.638611,8.1318224 C 5.6944878,-1.276861 6.0625198,-2.2631402 11.132567,6.8080828 C 13.379097,10.827528 15.00568,14.327653 14.747195,14.586139 C 14.48871,14.844624 12.639847,11.940181 10.638611,8.1318224 z M 34.820132,0.25059494 C 49.296205,0.09435329 72.696205,0.094491091 86.820132,0.25090116 C 100.94406,0.40731124 89.1,0.53514532 60.5,0.53497689 C 31.9,0.53480847 20.34406,0.40683659 34.820132,0.25059494 z "
       id="path2294" />
    <path
       style="fill:#595c97"
       d="M 13.259492,73.916821 C 17.736809,67.643729 20.121384,62.660131 23.482502,52.551427 C 27.278011,41.136273 28.914283,37.360921 28.969591,39.891129 C 29.022624,42.317234 20.919375,65.360226 18.802646,68.802599 C 17.685716,70.619029 16.984006,72.317339 17.24329,72.576623 C 17.713389,73.046722 26.135928,66.932154 33.25,60.956122 C 35.3125,59.223561 37,58.255133 37,58.804061 C 37,60.023545 26.988327,68.732667 21.5,72.287461 C 19.3,73.712402 16.157768,75.205724 14.517263,75.605953 L 11.534525,76.333643 L 13.259492,73.916821 z M 18.394888,25.216731 C 17.237076,24.272529 14.087076,21.932611 11.394888,20.016913 L 6.5,16.533827 L 10.5,15.984472 C 15.285234,15.327274 16.112321,15.713483 13.698919,17.478206 C 12.051998,18.682463 12.325111,19.067716 16.950491,22.064859 C 19.727721,23.864443 22,25.711043 22,26.168415 C 22,27.446247 20.7118,27.106185 18.394888,25.216731 z M 102.17478,21.50331 C 102.54591,21.1259 105.02091,20.613043 107.67478,20.363627 C 114.47486,19.724543 115.97344,19.131328 113.82921,17.927387 C 112.77476,17.335339 111.18294,17.360148 109.51411,17.994636 C 106.21744,19.248028 105,19.266 105,18.061273 C 105,17.544973 107.00532,16.82183 109.45626,16.454288 C 113.11955,15.904944 114.38917,16.160959 116.59112,17.893015 C 118.06435,19.051857 120.63403,20 122.30153,20 C 123.96902,20 125.14583,20.169069 124.91667,20.375709 C 124.14337,21.072991 101.49359,22.196025 102.17478,21.50331 z "
       id="path2292" />
    <path
       style="fill:#333d94"
       d="M 17,72.466235 C 17,72.064643 17.865753,70.332953 18.923896,68.618034 C 19.982038,66.903115 22.497023,60.55 24.512751,54.5 C 28.594497,42.249055 30.850229,37.983379 34.517611,35.580418 C 36.019144,34.596576 37,33.005831 37,31.554499 C 37,28.998048 34.672846,27.873236 26.542576,26.499982 C 24.365992,26.132343 20.137348,24.206789 17.145589,22.220972 C 10.970703,18.122316 10.711628,18.42563 23,15.366865 C 28.391933,14.02473 34.153983,13.5 43.5,13.5 L 56.5,13.5 L 64.323302,17.464097 C 68.626119,19.644351 72.384012,21.812328 72.674177,22.281824 C 72.964342,22.751321 71.294424,24.768053 68.96325,26.763452 C 66.632075,28.758851 63.240723,32.711357 61.426913,35.546799 C 58.846748,39.580246 56.863723,41.315808 52.314538,43.522033 C 47.03652,46.081721 37,54.850125 37,56.901577 C 37,57.863446 24.509755,68.441563 20.009894,71.290673 C 18.354452,72.338824 17,72.867827 17,72.466235 z M 105,20.104911 C 105,18.749566 112.22206,17.024678 113.91536,17.9756 C 115.29501,18.750384 115.30596,18.927851 114,19.347496 C 110.8852,20.348378 105,20.843659 105,20.104911 z "
       id="path2290" />
    <path
       style="fill:#642e6a"
       d="M 37,57.531791 C 37,54.948665 46.304892,46.436539 52.314538,43.522033 C 56.863723,41.315808 58.846748,39.580246 61.426913,35.546799 C 63.240723,32.711357 66.632075,28.758851 68.96325,26.763452 C 71.294424,24.768053 72.964342,22.751321 72.674177,22.281824 C 72.384012,21.812328 68.626119,19.655239 64.323302,17.488294 C 56.95153,13.775789 55.893981,13.527711 46,13.190051 C 38.624751,12.93835 33.268035,13.334459 28,14.521084 C 16.578022,17.093886 15,17.306386 15,16.271695 C 15,15.746278 19.46331,14.304415 24.918467,13.067555 C 32.761598,11.289265 37.124541,10.889995 45.769887,11.15936 C 56.655218,11.498516 56.748133,11.522525 67.10142,16.671194 C 72.820639,19.51535 78.519034,22.135249 79.764521,22.49319 C 82.947972,23.408085 81.712811,24.703776 76.878631,25.520505 C 71.995372,26.345526 66.080548,31.300044 62.321701,37.714032 C 60.385844,41.017321 58.300744,42.828991 53.847457,45.077004 C 47.284981,48.389731 40.411073,54.129464 39.475312,57.077786 C 38.758893,59.335021 37,59.657625 37,57.531791 z M 28.685453,39.688055 C 28.443498,39.034625 29.629414,37.036624 31.320821,35.248053 C 34.974137,31.384871 34.375063,30.432332 27.580085,29.300217 C 24.874131,28.849377 22.457922,27.873765 22.21073,27.132191 C 21.85767,26.073009 22.698261,25.929258 26.130646,26.461836 C 34.010572,27.684508 37,28.986165 37,31.194573 C 37,33.621491 29.337473,41.448922 28.685453,39.688055 z M 100,21.056704 C 100,20.537891 101.01016,19.405866 102.2448,18.541092 C 105.0466,16.578632 106.21372,18.639336 103.44647,20.6628 C 101.30239,22.230587 100,22.37944 100,21.056704 z "
       id="path2288" />
    <path
       style="fill:#ab1325"
       d="M 58.144264,94.25 C 57.120545,91.857655 57.14652,91.727599 58.343992,93.25 C 59.760326,95.050651 62,95.627188 62,94.19113 C 62,93.746251 62.684643,92.508751 63.521429,91.44113 C 64.704637,89.931521 64.663464,90.333641 63.336216,93.25 C 61.310184,97.701798 59.749934,98.002311 58.144264,94.25 z M 51,81 C 49.334165,77.7 48.19621,75 48.47121,75 C 48.74621,75 50.334165,77.7 52,81 C 53.665835,84.3 54.80379,87 54.52879,87 C 54.25379,87 52.665835,84.3 51,81 z M 69.5,80 C 70.89353,77.25 72.258692,75 72.533692,75 C 72.808692,75 71.89353,77.25 70.5,80 C 69.10647,82.75 67.741308,85 67.466308,85 C 67.191308,85 68.10647,82.75 69.5,80 z M 44.5,69 C 43.10647,66.25 42.191308,64 42.466308,64 C 42.741308,64 44.10647,66.25 45.5,69 C 46.89353,71.75 47.808692,74 47.533692,74 C 47.258692,74 45.89353,71.75 44.5,69 z M 78,64 C 79.665835,60.7 81.25379,58 81.52879,58 C 81.80379,58 80.665835,60.7 79,64 C 77.334165,67.3 75.74621,70 75.47121,70 C 75.19621,70 76.334165,67.3 78,64 z M 39.75,60.428267 C 37.108951,57.746367 43.489841,50.566787 52.917351,45.612771 C 58.246473,42.812397 60.395157,41.001431 62.353532,37.659716 C 66.082715,31.296346 72.009431,26.343151 76.878631,25.520505 C 81.712811,24.703776 82.947972,23.408085 79.764521,22.49319 C 78.519034,22.135249 72.820639,19.51535 67.10142,16.671194 C 56.738007,11.517489 56.665683,11.498843 45.71635,11.157939 C 37.063939,10.888548 32.723941,11.279403 25.288015,12.99769 C 20.095,14.197688 15.732007,15.026615 15.592474,14.839752 C 15.452942,14.652888 13.66553,11.4625 11.620448,7.75 L 7.9021175,1 L 59.899039,1 L 111.89596,1 L 110.84951,4.0018383 C 110.27397,5.6528494 109.35248,7.2821541 108.80177,7.6225155 C 108.24229,7.9682917 108.30614,7.2964865 108.94648,6.1000104 C 109.57678,4.9222713 109.82012,3.5179666 109.48723,2.9793333 C 108.75443,1.7936423 11.3606,1.6075194 10.629532,2.7904128 C 10.360856,3.2251399 11.488103,5.7450913 13.134526,8.3903049 C 15.601659,12.354107 16.512397,13.094952 18.314011,12.603591 C 28.383159,9.8573909 37.098364,8.8220919 46.834671,9.2155564 C 58.017397,9.6674738 58.651083,9.8697903 73.072466,17.592489 C 76.408326,19.378854 79.24801,20.051386 83.572466,20.079242 C 90.954206,20.126791 100.76719,17.567345 103.67433,14.836224 L 105.87264,12.77102 L 105.33187,14.83894 C 105.03444,15.976297 103.67781,17.636314 102.31712,18.527869 C 100.95644,19.419423 100.05485,20.700552 100.31359,21.374822 C 100.57233,22.049092 100.17357,23.703095 99.427451,25.050384 C 98.30744,27.072821 98.064691,27.176167 98.035435,25.643011 C 98.013765,24.507358 97.478266,23.986231 96.65686,24.301433 C 95.918133,24.58491 91.755633,25.344714 87.40686,25.989888 C 71.859136,28.296512 69.245998,29.795519 63.291044,39.823746 C 61.341363,43.107037 59.450559,44.710456 55.433569,46.48696 C 49.358495,49.173646 41.266442,56.190223 40.810124,59.166874 C 40.639556,60.279521 40.1625,60.847148 39.75,60.428267 z M 83.179599,54.5 C 83.890319,52.358377 89.061102,43 89.533692,43 C 89.808692,43 88.91918,45.1375 87.556999,47.75 C 85.08876,52.483785 82.549046,56.400053 83.179599,54.5 z M 26.816443,35.819936 C 25.988569,34.543971 24.738782,32.41915 24.039137,31.098112 L 22.767056,28.696224 L 27.593126,29.35771 C 34.320021,30.279734 35.060587,31.400952 31.376218,35.08532 L 28.321667,38.139871 L 26.816443,35.819936 z M 30.341982,33.551192 C 30.68225,32.664468 30.112575,31.853118 28.873611,31.459886 C 26.429187,30.684056 25.548081,31.379935 26.345077,33.456872 C 27.092889,35.405639 29.607592,35.464981 30.341982,33.551192 z M 94.5,33 C 95.89353,30.25 97.258692,28 97.533692,28 C 97.808692,28 96.89353,30.25 95.5,33 C 94.10647,35.75 92.741308,38 92.466308,38 C 92.191308,38 93.10647,35.75 94.5,33 z "
       id="path2286" />
    <path
       style="fill:#d80405"
       d="M 54.950726,86.75 C 52.601048,82.2125 48.500902,74.561429 45.839292,69.747621 C 43.177681,64.933812 41,60.153624 41,59.124981 C 41,56.440283 49.238375,49.226769 55.433569,46.48696 C 59.450559,44.710456 61.341363,43.107037 63.291044,39.823746 C 69.245998,29.795519 71.859136,28.296512 87.40686,25.989888 C 91.755633,25.344714 95.918133,24.58491 96.65686,24.301433 C 99.091426,23.367203 98.069067,26.521232 92.678453,36.575023 C 87.031858,47.10623 83.352987,54.018026 69.964278,79.25 C 65.367741,87.9125 61.070522,95 60.414903,95 C 59.759284,95 57.300404,91.2875 54.950726,86.75 z M 26.345077,33.456872 C 25.548081,31.379935 26.429187,30.684056 28.873611,31.459886 C 30.112575,31.853118 30.68225,32.664468 30.341982,33.551192 C 29.607592,35.464981 27.092889,35.405639 26.345077,33.456872 z M 80.287157,19.900272 C 77.420093,19.53025 73.595093,18.278056 71.787157,17.117619 C 69.979221,15.957183 66.025,13.801471 63,12.327149 C 53.771237,7.8292437 35.402872,7.942876 18.314011,12.603591 C 16.512397,13.094952 15.601659,12.354107 13.134526,8.3903049 C 11.488103,5.7450913 10.360856,3.2251399 10.629532,2.7904128 C 11.352975,1.6198576 108.75377,1.7925797 109.4788,2.9657035 C 110.14547,4.0443941 106.65671,11.484299 104.13349,14.364763 C 100.93045,18.021301 88.352141,20.941134 80.287157,19.900272 z "
       id="path2284" />
  </g>
</svg>
